<mxfile host="Electron" modified="2023-12-10T12:25:48.448Z" agent="Mozilla/5.0 (Windows NT 10.0; Win64; x64) AppleWebKit/537.36 (KHTML, like Gecko) draw.io/22.1.2 Chrome/114.0.5735.289 Electron/25.9.4 Safari/537.36" etag="JBWsIl9fbscw4FTJRJBw" version="22.1.2" type="device">
  <diagram name="第 1 页" id="qr2n0SAf9E1rkZrKLxI_">
    <mxGraphModel dx="934" dy="574" grid="1" gridSize="10" guides="1" tooltips="1" connect="1" arrows="1" fold="1" page="1" pageScale="1" pageWidth="1200" pageHeight="1600" math="0" shadow="0">
      <root>
        <mxCell id="0" />
        <mxCell id="1" parent="0" />
        <mxCell id="dt6azuv0U-t87pZbB_tn-1" value="GameInit()" style="rounded=1;whiteSpace=wrap;html=1;strokeWidth=4;fontFamily=Comic Sans MS;fontStyle=1;fontSize=11;" vertex="1" parent="1">
          <mxGeometry x="360" y="510" width="160" height="40" as="geometry" />
        </mxCell>
        <mxCell id="dt6azuv0U-t87pZbB_tn-3" value="设置随机数" style="rounded=1;whiteSpace=wrap;html=1;strokeWidth=4;fontFamily=Comic Sans MS;fontStyle=1;fontSize=11;" vertex="1" parent="1">
          <mxGeometry x="360" y="550" width="80" height="40" as="geometry" />
        </mxCell>
        <mxCell id="dt6azuv0U-t87pZbB_tn-11" style="edgeStyle=orthogonalEdgeStyle;rounded=0;orthogonalLoop=1;jettySize=auto;html=1;exitX=0;exitY=1;exitDx=0;exitDy=0;entryX=0.5;entryY=0;entryDx=0;entryDy=0;fontSize=11;strokeWidth=4;" edge="1" parent="1" source="dt6azuv0U-t87pZbB_tn-4" target="dt6azuv0U-t87pZbB_tn-5">
          <mxGeometry relative="1" as="geometry" />
        </mxCell>
        <mxCell id="dt6azuv0U-t87pZbB_tn-4" value="创建绘图窗口" style="rounded=1;whiteSpace=wrap;html=1;strokeWidth=4;fontFamily=Comic Sans MS;fontStyle=1;fontSize=11;" vertex="1" parent="1">
          <mxGeometry x="440" y="550" width="80" height="40" as="geometry" />
        </mxCell>
        <mxCell id="dt6azuv0U-t87pZbB_tn-5" value="PrintGrid()" style="rounded=1;whiteSpace=wrap;html=1;strokeWidth=4;fontFamily=Comic Sans MS;fontStyle=1;fontSize=11;" vertex="1" parent="1">
          <mxGeometry x="360" y="630" width="160" height="40" as="geometry" />
        </mxCell>
        <mxCell id="dt6azuv0U-t87pZbB_tn-12" style="edgeStyle=orthogonalEdgeStyle;rounded=0;orthogonalLoop=1;jettySize=auto;html=1;exitX=0.5;exitY=1;exitDx=0;exitDy=0;entryX=0.5;entryY=0;entryDx=0;entryDy=0;fontSize=11;strokeWidth=4;" edge="1" parent="1" source="dt6azuv0U-t87pZbB_tn-6" target="dt6azuv0U-t87pZbB_tn-9">
          <mxGeometry relative="1" as="geometry">
            <Array as="points">
              <mxPoint x="440" y="760" />
              <mxPoint x="560" y="760" />
            </Array>
          </mxGeometry>
        </mxCell>
        <mxCell id="dt6azuv0U-t87pZbB_tn-6" value="绘制游戏的网格" style="rounded=1;whiteSpace=wrap;html=1;strokeWidth=4;fontFamily=Comic Sans MS;fontStyle=1;fontSize=11;" vertex="1" parent="1">
          <mxGeometry x="360" y="670" width="160" height="40" as="geometry" />
        </mxCell>
        <mxCell id="dt6azuv0U-t87pZbB_tn-7" value="SnakeMove()" style="rounded=1;whiteSpace=wrap;html=1;strokeWidth=4;fontFamily=Comic Sans MS;fontStyle=1;fontSize=11;" vertex="1" parent="1">
          <mxGeometry x="240" y="800" width="160" height="40" as="geometry" />
        </mxCell>
        <mxCell id="dt6azuv0U-t87pZbB_tn-16" style="edgeStyle=orthogonalEdgeStyle;rounded=0;orthogonalLoop=1;jettySize=auto;html=1;exitX=0.5;exitY=1;exitDx=0;exitDy=0;entryX=0.5;entryY=0;entryDx=0;entryDy=0;fontSize=11;strokeWidth=4;fillColor=#a20025;strokeColor=#6F0000;" edge="1" parent="1" source="dt6azuv0U-t87pZbB_tn-8" target="dt6azuv0U-t87pZbB_tn-14">
          <mxGeometry relative="1" as="geometry" />
        </mxCell>
        <mxCell id="dt6azuv0U-t87pZbB_tn-8" value="更新蛇节点坐标数据" style="rounded=1;whiteSpace=wrap;html=1;strokeWidth=4;fontFamily=Comic Sans MS;fontStyle=1;fontSize=11;" vertex="1" parent="1">
          <mxGeometry x="240" y="840" width="160" height="40" as="geometry" />
        </mxCell>
        <mxCell id="dt6azuv0U-t87pZbB_tn-29" style="edgeStyle=orthogonalEdgeStyle;rounded=0;orthogonalLoop=1;jettySize=auto;html=1;exitX=0;exitY=0.5;exitDx=0;exitDy=0;entryX=1;entryY=0.5;entryDx=0;entryDy=0;strokeWidth=4;fillColor=#a20025;strokeColor=#6F0000;" edge="1" parent="1" source="dt6azuv0U-t87pZbB_tn-9" target="dt6azuv0U-t87pZbB_tn-7">
          <mxGeometry relative="1" as="geometry" />
        </mxCell>
        <mxCell id="dt6azuv0U-t87pZbB_tn-9" value="ChangeDirection()" style="rounded=1;whiteSpace=wrap;html=1;strokeWidth=4;fontFamily=Comic Sans MS;fontStyle=1;fontSize=11;" vertex="1" parent="1">
          <mxGeometry x="480" y="800" width="160" height="40" as="geometry" />
        </mxCell>
        <mxCell id="dt6azuv0U-t87pZbB_tn-10" value="根据用户的输入改变方向" style="rounded=1;whiteSpace=wrap;html=1;strokeWidth=4;fontFamily=Comic Sans MS;fontStyle=1;fontSize=11;" vertex="1" parent="1">
          <mxGeometry x="480" y="840" width="160" height="40" as="geometry" />
        </mxCell>
        <mxCell id="dt6azuv0U-t87pZbB_tn-14" value="PrintSnake()" style="rounded=1;whiteSpace=wrap;html=1;strokeWidth=4;fontFamily=Comic Sans MS;fontStyle=1;fontSize=11;" vertex="1" parent="1">
          <mxGeometry x="240" y="920" width="160" height="40" as="geometry" />
        </mxCell>
        <mxCell id="dt6azuv0U-t87pZbB_tn-19" style="edgeStyle=orthogonalEdgeStyle;rounded=0;orthogonalLoop=1;jettySize=auto;html=1;exitX=0.5;exitY=1;exitDx=0;exitDy=0;entryX=0;entryY=0.5;entryDx=0;entryDy=0;fontSize=11;strokeWidth=4;fillColor=#a20025;strokeColor=#6F0000;" edge="1" parent="1" source="dt6azuv0U-t87pZbB_tn-15" target="dt6azuv0U-t87pZbB_tn-17">
          <mxGeometry relative="1" as="geometry">
            <Array as="points">
              <mxPoint x="320" y="1060" />
            </Array>
          </mxGeometry>
        </mxCell>
        <mxCell id="dt6azuv0U-t87pZbB_tn-15" value="根据蛇结点坐标数据，绘制蛇" style="rounded=1;whiteSpace=wrap;html=1;strokeWidth=4;fontFamily=Comic Sans MS;fontStyle=1;fontSize=11;" vertex="1" parent="1">
          <mxGeometry x="240" y="960" width="160" height="40" as="geometry" />
        </mxCell>
        <mxCell id="dt6azuv0U-t87pZbB_tn-22" style="edgeStyle=orthogonalEdgeStyle;rounded=0;orthogonalLoop=1;jettySize=auto;html=1;entryX=0.5;entryY=1;entryDx=0;entryDy=0;exitX=1;exitY=0.5;exitDx=0;exitDy=0;strokeWidth=4;fillColor=#a20025;strokeColor=#6F0000;" edge="1" parent="1" source="dt6azuv0U-t87pZbB_tn-17" target="dt6azuv0U-t87pZbB_tn-21">
          <mxGeometry relative="1" as="geometry">
            <mxPoint x="590" y="1120" as="sourcePoint" />
            <Array as="points">
              <mxPoint x="560" y="1060" />
            </Array>
          </mxGeometry>
        </mxCell>
        <mxCell id="dt6azuv0U-t87pZbB_tn-17" value="CreateFood()&lt;br style=&quot;font-size: 11px;&quot;&gt;PaintFood()" style="rounded=1;whiteSpace=wrap;html=1;strokeWidth=4;fontFamily=Comic Sans MS;fontStyle=1;fontSize=11;" vertex="1" parent="1">
          <mxGeometry x="360" y="1040" width="160" height="40" as="geometry" />
        </mxCell>
        <mxCell id="dt6azuv0U-t87pZbB_tn-18" value="创建食物坐标随机数，绘制食物" style="rounded=1;whiteSpace=wrap;html=1;strokeWidth=4;fontFamily=Comic Sans MS;fontStyle=1;fontSize=11;" vertex="1" parent="1">
          <mxGeometry x="360" y="1080" width="160" height="40" as="geometry" />
        </mxCell>
        <mxCell id="dt6azuv0U-t87pZbB_tn-23" style="edgeStyle=orthogonalEdgeStyle;rounded=0;orthogonalLoop=1;jettySize=auto;html=1;exitX=0.5;exitY=0;exitDx=0;exitDy=0;entryX=0.5;entryY=1;entryDx=0;entryDy=0;strokeWidth=4;fillColor=#a20025;strokeColor=#6F0000;" edge="1" parent="1" source="dt6azuv0U-t87pZbB_tn-20" target="dt6azuv0U-t87pZbB_tn-10">
          <mxGeometry relative="1" as="geometry" />
        </mxCell>
        <mxCell id="dt6azuv0U-t87pZbB_tn-20" value="IsGameOver()" style="rounded=1;whiteSpace=wrap;html=1;strokeWidth=4;fontFamily=Comic Sans MS;fontStyle=1;fontSize=11;" vertex="1" parent="1">
          <mxGeometry x="480" y="920" width="160" height="40" as="geometry" />
        </mxCell>
        <mxCell id="dt6azuv0U-t87pZbB_tn-24" style="edgeStyle=orthogonalEdgeStyle;rounded=0;orthogonalLoop=1;jettySize=auto;html=1;entryX=1;entryY=1;entryDx=0;entryDy=0;exitX=1;exitY=1;exitDx=0;exitDy=0;strokeWidth=4;" edge="1" parent="1" source="dt6azuv0U-t87pZbB_tn-20" target="dt6azuv0U-t87pZbB_tn-25">
          <mxGeometry relative="1" as="geometry">
            <mxPoint x="405" y="1270" as="targetPoint" />
            <mxPoint x="740" y="890" as="sourcePoint" />
            <Array as="points">
              <mxPoint x="670" y="960" />
              <mxPoint x="670" y="1210" />
            </Array>
          </mxGeometry>
        </mxCell>
        <mxCell id="dt6azuv0U-t87pZbB_tn-21" value="检测游戏是否结束" style="rounded=1;whiteSpace=wrap;html=1;strokeWidth=4;fontFamily=Comic Sans MS;fontStyle=1;fontSize=11;" vertex="1" parent="1">
          <mxGeometry x="480" y="960" width="160" height="40" as="geometry" />
        </mxCell>
        <mxCell id="dt6azuv0U-t87pZbB_tn-25" value="Reset()" style="rounded=1;whiteSpace=wrap;html=1;strokeWidth=4;fontFamily=Comic Sans MS;fontStyle=1;fontSize=11;" vertex="1" parent="1">
          <mxGeometry x="360" y="1170" width="160" height="40" as="geometry" />
        </mxCell>
        <mxCell id="dt6azuv0U-t87pZbB_tn-31" style="edgeStyle=orthogonalEdgeStyle;rounded=0;orthogonalLoop=1;jettySize=auto;html=1;exitX=0;exitY=0;exitDx=0;exitDy=0;entryX=0;entryY=0;entryDx=0;entryDy=0;strokeWidth=4;" edge="1" parent="1" source="dt6azuv0U-t87pZbB_tn-26" target="dt6azuv0U-t87pZbB_tn-6">
          <mxGeometry relative="1" as="geometry">
            <mxPoint x="210" y="659.9999999999998" as="targetPoint" />
            <Array as="points">
              <mxPoint x="200" y="1210" />
              <mxPoint x="200" y="670" />
            </Array>
          </mxGeometry>
        </mxCell>
        <mxCell id="dt6azuv0U-t87pZbB_tn-26" value="复位蛇的坐标和数据" style="rounded=1;whiteSpace=wrap;html=1;strokeWidth=4;fontFamily=Comic Sans MS;fontStyle=1;fontSize=11;" vertex="1" parent="1">
          <mxGeometry x="360" y="1210" width="160" height="40" as="geometry" />
        </mxCell>
      </root>
    </mxGraphModel>
  </diagram>
</mxfile>
